  0
SECTION
  2
HEADER
  9
$ACADVER
  1
AC1009
  9
$FILLMODE
 70
0
  9
$EXTMIN
 10
51.9176
 20
25.2476
 30
0.0000
  9
$EXTMAX
 10
101.7524
 20
77.6224
 30
0.0000
  0
ENDSEC
  0
SECTION
  2
TABLES
  0
TABLE
  2
LTYPE
 70
1
  0
LTYPE
  2
CONTINUOUS
 70
64
  3
Solid line
 72
65
 73
0
 40
0
  0
ENDTAB
  0
TABLE
  2
LAYER
 70
255
  0
LAYER
  2
31
 70
64
 62
253
  6
CONTINUOUS
  0
ENDTAB
  0
ENDSEC
  0
SECTION
  2
BLOCKS
  0
BLOCK
  8
0
  2
RECT
 70
64
 10
0.0000
 20
0.0000
 30
0.0000
  3
RECT
  0
SOLID
  8
0
 10
-0.5000
 20
-0.5000
 30
0.0000
 11
0.5000
 21
-0.5000
 31
0.0000
 12
-0.5000
 22
0.5000
 32
0.0000
 13
0.5000
 23
0.5000
 33
0.0000
  0
ENDBLK
  8
0
  0
BLOCK
  8
0
  2
PIE
 70
64
 10
0.0000
 20
0.0000
 30
0.0000
  3
PIE
  0
CIRCLE
  8
0
 10
0.0000
 20
0.0000
 30
0.0000
 40
0.5000
  0
ENDBLK
  8
0
  0
BLOCK
  8
0
  2
OCTAGONP
 70
64
 10
0.0000
 20
0.0000
 30
0.0000
  3
OCTAGONP
  0
POLYLINE
  8
0
 66
1
 10
0.0000
 20
0.0000
 30
0.0000
 40
0.0000
 41
0.0000
 70
1
  0
VERTEX
  8
0
 10
-0.5000
 20
-0.2071
 30
0.0000
  0
VERTEX
  8
0
 10
-0.5000
 20
0.2071
 30
0.0000
  0
VERTEX
  8
0
 10
-0.2071
 20
0.5000
 30
0.0000
  0
VERTEX
  8
0
 10
0.2071
 20
0.5000
 30
0.0000
  0
VERTEX
  8
0
 10
0.5000
 20
0.2071
 30
0.0000
  0
VERTEX
  8
0
 10
0.5000
 20
-0.2071
 30
0.0000
  0
VERTEX
  8
0
 10
0.2071
 20
-0.5000
 30
0.0000
  0
VERTEX
  8
0
 10
-0.2071
 20
-0.5000
 30
0.0000
  0
SEQEND
  8
0
  0
ENDBLK
  8
0
  0
BLOCK
  8
0
  2
SQUAREP
 70
64
 10
0.0000
 20
0.0000
 30
0.0000
  3
SQUAREP
  0
SOLID
  8
0
 10
-0.5000
 20
-0.5000
 30
0.0000
 11
0.5000
 21
-0.5000
 31
0.0000
 12
-0.5000
 22
0.5000
 32
0.0000
 13
0.5000
 23
0.5000
 33
0.0000
  0
ENDBLK
  8
0
  0
BLOCK
  8
0
  2
ROUNDP
 70
64
 10
0.0000
 20
0.0000
 30
0.0000
  3
ROUNDP
  0
CIRCLE
  8
0
 10
0.0000
 20
0.0000
 30
0.0000
 40
0.5000
  0
ENDBLK
  8
0
  0
BLOCK
  8
0
  2
ANNULUSP
 70
64
 10
0.0000
 20
0.0000
 30
0.0000
  3
ANNULUSP
  0
CIRCLE
  8
0
 10
0.0000
 20
0.0000
 30
0.0000
 40
0.5000
  0
ENDBLK
  8
0
  0
BLOCK
  8
0
  2
THERMALP
 70
64
 10
0.0000
 20
0.0000
 30
0.0000
  3
THERMALP
  0
LINE
  8
0
 10
-0.2379
 20
0.4500
 30
0.0000
 11
0.2379
 21
0.4500
 31
0.0000
  0
LINE
  8
0
 10
0.4500
 20
0.2379
 30
0.0000
 11
0.4500
 21
-0.2379
 31
0.0000
  0
LINE
  8
0
 10
0.2379
 20
-0.4500
 30
0.0000
 11
-0.2379
 21
-0.4500
 31
0.0000
  0
LINE
  8
0
 10
-0.4500
 20
-0.2379
 30
0.0000
 11
-0.4500
 21
0.2379
 31
0.0000
  0
ENDBLK
  8
0
  0
BLOCK
  8
0
  2
OCTAGONV
 70
64
 10
0.0000
 20
0.0000
 30
0.0000
  3
OCTAGONV
  0
POLYLINE
  8
0
 66
1
 10
0.0000
 20
0.0000
 30
0.0000
 40
0.0000
 41
0.0000
 70
1
  0
VERTEX
  8
0
 10
-0.5000
 20
-0.2071
 30
0.0000
  0
VERTEX
  8
0
 10
-0.5000
 20
0.2071
 30
0.0000
  0
VERTEX
  8
0
 10
-0.2071
 20
0.5000
 30
0.0000
  0
VERTEX
  8
0
 10
0.2071
 20
0.5000
 30
0.0000
  0
VERTEX
  8
0
 10
0.5000
 20
0.2071
 30
0.0000
  0
VERTEX
  8
0
 10
0.5000
 20
-0.2071
 30
0.0000
  0
VERTEX
  8
0
 10
0.2071
 20
-0.5000
 30
0.0000
  0
VERTEX
  8
0
 10
-0.2071
 20
-0.5000
 30
0.0000
  0
SEQEND
  8
0
  0
ENDBLK
  8
0
  0
BLOCK
  8
0
  2
SQUAREV
 70
64
 10
0.0000
 20
0.0000
 30
0.0000
  3
SQUAREV
  0
SOLID
  8
0
 10
-0.5000
 20
-0.5000
 30
0.0000
 11
0.5000
 21
-0.5000
 31
0.0000
 12
-0.5000
 22
0.5000
 32
0.0000
 13
0.5000
 23
0.5000
 33
0.0000
  0
ENDBLK
  8
0
  0
BLOCK
  8
0
  2
ROUNDV
 70
64
 10
0.0000
 20
0.0000
 30
0.0000
  3
ROUNDV
  0
CIRCLE
  8
0
 10
0.0000
 20
0.0000
 30
0.0000
 40
0.5000
  0
ENDBLK
  8
0
  0
BLOCK
  8
0
  2
ANNULUSV
 70
64
 10
0.0000
 20
0.0000
 30
0.0000
  3
ANNULUSV
  0
CIRCLE
  8
0
 10
0.0000
 20
0.0000
 30
0.0000
 40
0.5000
  0
ENDBLK
  8
0
  0
BLOCK
  8
0
  2
THERMALV
 70
64
 10
0.0000
 20
0.0000
 30
0.0000
  3
THERMALV
  0
LINE
  8
0
 10
-0.2379
 20
0.4500
 30
0.0000
 11
0.2379
 21
0.4500
 31
0.0000
  0
LINE
  8
0
 10
0.4500
 20
0.2379
 30
0.0000
 11
0.4500
 21
-0.2379
 31
0.0000
  0
LINE
  8
0
 10
0.2379
 20
-0.4500
 30
0.0000
 11
-0.2379
 21
-0.4500
 31
0.0000
  0
LINE
  8
0
 10
-0.4500
 20
-0.2379
 30
0.0000
 11
-0.4500
 21
0.2379
 31
0.0000
  0
ENDBLK
  8
0
  0
BLOCK
  8
0
  2
RECT0X0R50
 70
64
 10
0.0000
 20
0.0000
 30
0.0000
  3
RECT0X0R50
  0
POLYLINE
  8
0
 66
1
 10
0.0000
 20
0.0000
 30
0.0000
 40
0.0000
 41
0.0000
 70
1
  0
VERTEX
  8
0
 10
0.0000
 20
0.0000
 30
0.0000
  0
VERTEX
  8
0
 10
0.0000
 20
0.0000
 30
0.0000
 42
0.4142
  0
VERTEX
  8
0
 10
0.0000
 20
0.0000
 30
0.0000
  0
VERTEX
  8
0
 10
0.0000
 20
0.0000
 30
0.0000
 42
0.4142
  0
VERTEX
  8
0
 10
0.0000
 20
0.0000
 30
0.0000
  0
VERTEX
  8
0
 10
0.0000
 20
0.0000
 30
0.0000
 42
0.4142
  0
VERTEX
  8
0
 10
0.0000
 20
0.0000
 30
0.0000
  0
VERTEX
  8
0
 10
0.0000
 20
0.0000
 30
0.0000
 42
0.4142
  0
SEQEND
  8
0
  0
ENDBLK
  8
0
  0
BLOCK
  8
0
  2
RECT325120X584000R75
 70
64
 10
0.0000
 20
0.0000
 30
0.0000
  3
RECT325120X584000R75
  0
POLYLINE
  8
0
 66
1
 10
0.0000
 20
0.0000
 30
0.0000
 40
0.0000
 41
0.0000
 70
1
  0
VERTEX
  8
0
 10
1.0160
 20
-1.0630
 30
0.0000
  0
VERTEX
  8
0
 10
1.0160
 20
1.0630
 30
0.0000
 42
0.4142
  0
VERTEX
  8
0
 10
0.2540
 20
1.8250
 30
0.0000
  0
VERTEX
  8
0
 10
-0.2540
 20
1.8250
 30
0.0000
 42
0.4142
  0
VERTEX
  8
0
 10
-1.0160
 20
1.0630
 30
0.0000
  0
VERTEX
  8
0
 10
-1.0160
 20
-1.0630
 30
0.0000
 42
0.4142
  0
VERTEX
  8
0
 10
-0.2540
 20
-1.8250
 30
0.0000
  0
VERTEX
  8
0
 10
0.2540
 20
-1.8250
 30
0.0000
 42
0.4142
  0
SEQEND
  8
0
  0
ENDBLK
  8
0
  0
ENDSEC
  0
SECTION
  2
ENTITIES
  0
INSERT
  8
31
  2
RECT
 10
72.0200
 20
64.1350
 30
0.0000
 41
0.8000
 42
1.2000
 43
1.0000
 50
180.0000
  0
INSERT
  8
31
  2
RECT
 10
70.2200
 20
64.1350
 30
0.0000
 41
0.8000
 42
1.2000
 43
1.0000
 50
180.0000
  0
INSERT
  8
31
  2
RECT
 10
68.5800
 20
51.7000
 30
0.0000
 41
0.8000
 42
1.2000
 43
1.0000
 50
270.0000
  0
INSERT
  8
31
  2
RECT
 10
68.5800
 20
49.9000
 30
0.0000
 41
0.8000
 42
1.2000
 43
1.0000
 50
270.0000
  0
INSERT
  8
31
  2
RECT
 10
77.1000
 20
41.9100
 30
0.0000
 41
0.8000
 42
1.2000
 43
1.0000
 50
180.0000
  0
INSERT
  8
31
  2
RECT
 10
75.3000
 20
41.9100
 30
0.0000
 41
0.8000
 42
1.2000
 43
1.0000
 50
180.0000
  0
INSERT
  8
31
  2
RECT
 10
67.6800
 20
43.1800
 30
0.0000
 41
0.8000
 42
1.2000
 43
1.0000
 50
0.0000
  0
INSERT
  8
31
  2
RECT
 10
69.4800
 20
43.1800
 30
0.0000
 41
0.8000
 42
1.2000
 43
1.0000
 50
0.0000
  0
INSERT
  8
31
  2
RECT
 10
61.3300
 20
74.9300
 30
0.0000
 41
0.8000
 42
1.2000
 43
1.0000
 50
0.0000
  0
INSERT
  8
31
  2
RECT
 10
63.1300
 20
74.9300
 30
0.0000
 41
0.8000
 42
1.2000
 43
1.0000
 50
0.0000
  0
INSERT
  8
31
  2
RECT
 10
75.3000
 20
50.8000
 30
0.0000
 41
0.8000
 42
1.2000
 43
1.0000
 50
0.0000
  0
INSERT
  8
31
  2
RECT
 10
77.1000
 20
50.8000
 30
0.0000
 41
0.8000
 42
1.2000
 43
1.0000
 50
0.0000
  0
INSERT
  8
31
  2
RECT
 10
80.0100
 20
64.4000
 30
0.0000
 41
0.8000
 42
1.2000
 43
1.0000
 50
270.0000
  0
INSERT
  8
31
  2
RECT
 10
80.0100
 20
62.6000
 30
0.0000
 41
0.8000
 42
1.2000
 43
1.0000
 50
270.0000
  0
INSERT
  8
31
  2
RECT
 10
87.6300
 20
74.5600
 30
0.0000
 41
0.8000
 42
1.2000
 43
1.0000
 50
270.0000
  0
INSERT
  8
31
  2
RECT
 10
87.6300
 20
72.7600
 30
0.0000
 41
0.8000
 42
1.2000
 43
1.0000
 50
270.0000
  0
INSERT
  8
31
  2
RECT
 10
67.3100
 20
72.7600
 30
0.0000
 41
0.8000
 42
1.2000
 43
1.0000
 50
90.0000
  0
INSERT
  8
31
  2
RECT
 10
67.3100
 20
74.5600
 30
0.0000
 41
0.8000
 42
1.2000
 43
1.0000
 50
90.0000
  0
INSERT
  8
31
  2
RECT
 10
84.4550
 20
68.9500
 30
0.0000
 41
0.8000
 42
1.2000
 43
1.0000
 50
90.0000
  0
INSERT
  8
31
  2
RECT
 10
84.4550
 20
70.7500
 30
0.0000
 41
0.8000
 42
1.2000
 43
1.0000
 50
90.0000
  0
INSERT
  8
31
  2
RECT
 10
67.3100
 20
68.3150
 30
0.0000
 41
0.8000
 42
1.2000
 43
1.0000
 50
90.0000
  0
INSERT
  8
31
  2
RECT
 10
67.3100
 20
70.1150
 30
0.0000
 41
0.8000
 42
1.2000
 43
1.0000
 50
90.0000
  0
INSERT
  8
31
  2
RECT
 10
61.3300
 20
68.5800
 30
0.0000
 41
0.8000
 42
1.2000
 43
1.0000
 50
0.0000
  0
INSERT
  8
31
  2
RECT
 10
63.1300
 20
68.5800
 30
0.0000
 41
0.8000
 42
1.2000
 43
1.0000
 50
0.0000
  0
INSERT
  8
31
  2
RECT
 10
71.1200
 20
71.4250
 30
0.0000
 41
0.9000
 42
0.9500
 43
1.0000
 50
90.0000
  0
INSERT
  8
31
  2
RECT
 10
71.1200
 20
68.2750
 30
0.0000
 41
0.9000
 42
0.9500
 43
1.0000
 50
90.0000
  0
INSERT
  8
31
  2
RECT
 10
69.2150
 20
34.6950
 30
0.0000
 41
1.2000
 42
1.4000
 43
1.0000
 50
90.0000
  0
INSERT
  8
31
  2
RECT
 10
69.2150
 20
37.6950
 30
0.0000
 41
1.2000
 42
1.4000
 43
1.0000
 50
90.0000
  0
INSERT
  8
31
  2
RECT
 10
81.2800
 20
73.2550
 30
0.0000
 41
1.2000
 42
1.4000
 43
1.0000
 50
270.0000
  0
INSERT
  8
31
  2
RECT
 10
81.2800
 20
70.2550
 30
0.0000
 41
1.2000
 42
1.4000
 43
1.0000
 50
270.0000
  0
CIRCLE
  8
31
 10
62.3350
 20
72.7550
 30
0.0000
 40
0.1150
  0
CIRCLE
  8
31
 10
62.3350
 20
72.2550
 30
0.0000
 40
0.1150
  0
CIRCLE
  8
31
 10
62.3350
 20
71.7550
 30
0.0000
 40
0.1150
  0
CIRCLE
  8
31
 10
62.3350
 20
71.2550
 30
0.0000
 40
0.1150
  0
CIRCLE
  8
31
 10
62.3350
 20
70.7550
 30
0.0000
 40
0.1150
  0
CIRCLE
  8
31
 10
64.6650
 20
70.7550
 30
0.0000
 40
0.1150
  0
CIRCLE
  8
31
 10
64.6650
 20
71.2550
 30
0.0000
 40
0.1150
  0
CIRCLE
  8
31
 10
64.6650
 20
71.7550
 30
0.0000
 40
0.1150
  0
CIRCLE
  8
31
 10
64.6650
 20
72.2550
 30
0.0000
 40
0.1150
  0
CIRCLE
  8
31
 10
64.6650
 20
72.7550
 30
0.0000
 40
0.1150
  0
INSERT
  8
31
  2
RECT
 10
63.7750
 20
73.3675
 30
0.0000
 41
0.5750
 42
0.2500
 43
1.0000
 50
270.0000
  0
INSERT
  8
31
  2
RECT
 10
63.2250
 20
73.3675
 30
0.0000
 41
0.5750
 42
0.2500
 43
1.0000
 50
270.0000
  0
INSERT
  8
31
  2
RECT
 10
63.9750
 20
72.4175
 30
0.0000
 41
1.0250
 42
0.6500
 43
1.0000
 50
270.0000
  0
INSERT
  8
31
  2
RECT
 10
63.0250
 20
72.4175
 30
0.0000
 41
1.0250
 42
0.6500
 43
1.0000
 50
270.0000
  0
INSERT
  8
31
  2
RECT
 10
63.0250
 20
71.0925
 30
0.0000
 41
1.0250
 42
0.6500
 43
1.0000
 50
90.0000
  0
INSERT
  8
31
  2
RECT
 10
63.9750
 20
71.0925
 30
0.0000
 41
1.0250
 42
0.6500
 43
1.0000
 50
90.0000
  0
INSERT
  8
31
  2
RECT
 10
61.9925
 20
72.7550
 30
0.0000
 41
0.6850
 42
0.2300
 43
1.0000
 50
0.0000
  0
INSERT
  8
31
  2
RECT
 10
61.9925
 20
72.2550
 30
0.0000
 41
0.6850
 42
0.2300
 43
1.0000
 50
0.0000
  0
INSERT
  8
31
  2
RECT
 10
61.9925
 20
71.7550
 30
0.0000
 41
0.6850
 42
0.2300
 43
1.0000
 50
0.0000
  0
INSERT
  8
31
  2
RECT
 10
61.9925
 20
71.2550
 30
0.0000
 41
0.6850
 42
0.2300
 43
1.0000
 50
0.0000
  0
INSERT
  8
31
  2
RECT
 10
61.9925
 20
70.7550
 30
0.0000
 41
0.6850
 42
0.2300
 43
1.0000
 50
0.0000
  0
INSERT
  8
31
  2
RECT
 10
65.0075
 20
70.7550
 30
0.0000
 41
0.6850
 42
0.2300
 43
1.0000
 50
180.0000
  0
INSERT
  8
31
  2
RECT
 10
65.0075
 20
71.2550
 30
0.0000
 41
0.6850
 42
0.2300
 43
1.0000
 50
180.0000
  0
INSERT
  8
31
  2
RECT
 10
65.0075
 20
71.7550
 30
0.0000
 41
0.6850
 42
0.2300
 43
1.0000
 50
180.0000
  0
INSERT
  8
31
  2
RECT
 10
65.0075
 20
72.2550
 30
0.0000
 41
0.6850
 42
0.2300
 43
1.0000
 50
180.0000
  0
INSERT
  8
31
  2
RECT
 10
65.0075
 20
72.7550
 30
0.0000
 41
0.6850
 42
0.2300
 43
1.0000
 50
180.0000
  0
INSERT
  8
31
  2
RECT
 10
63.2250
 20
70.1425
 30
0.0000
 41
0.5750
 42
0.2500
 43
1.0000
 50
90.0000
  0
INSERT
  8
31
  2
RECT
 10
63.7750
 20
70.1425
 30
0.0000
 41
0.5750
 42
0.2500
 43
1.0000
 50
90.0000
  0
INSERT
  8
31
  2
RECT
 10
57.3250
 20
69.5800
 30
0.0000
 41
6.0000
 42
2.5000
 43
1.0000
 50
180.0000
  0
INSERT
  8
31
  2
RECT
 10
57.3250
 20
73.8800
 30
0.0000
 41
6.0000
 42
2.5000
 43
1.0000
 50
180.0000
  0
INSERT
  8
31
  2
RECT
 10
72.7550
 20
73.3450
 30
0.0000
 41
0.8000
 42
0.9000
 43
1.0000
 50
90.0000
  0
INSERT
  8
31
  2
RECT
 10
72.7550
 20
75.2450
 30
0.0000
 41
0.8000
 42
0.9000
 43
1.0000
 50
90.0000
  0
INSERT
  8
31
  2
RECT
 10
70.6550
 20
74.2950
 30
0.0000
 41
0.8000
 42
0.9000
 43
1.0000
 50
90.0000
  0
INSERT
  8
31
  2
RECT
 10
87.2600
 20
44.4500
 30
0.0000
 41
0.8000
 42
1.2000
 43
1.0000
 50
180.0000
  0
INSERT
  8
31
  2
RECT
 10
85.4600
 20
44.4500
 30
0.0000
 41
0.8000
 42
1.2000
 43
1.0000
 50
180.0000
  0
INSERT
  8
31
  2
RECT
 10
80.0100
 20
57.5200
 30
0.0000
 41
0.8000
 42
1.2000
 43
1.0000
 50
90.0000
  0
INSERT
  8
31
  2
RECT
 10
80.0100
 20
59.3200
 30
0.0000
 41
0.8000
 42
1.2000
 43
1.0000
 50
90.0000
  0
INSERT
  8
31
  2
RECT
 10
83.8200
 20
57.5200
 30
0.0000
 41
0.8000
 42
1.2000
 43
1.0000
 50
90.0000
  0
INSERT
  8
31
  2
RECT
 10
83.8200
 20
59.3200
 30
0.0000
 41
0.8000
 42
1.2000
 43
1.0000
 50
90.0000
  0
INSERT
  8
31
  2
RECT
 10
74.6650
 20
74.2950
 30
0.0000
 41
0.8000
 42
1.2000
 43
1.0000
 50
0.0000
  0
INSERT
  8
31
  2
RECT
 10
76.4650
 20
74.2950
 30
0.0000
 41
0.8000
 42
1.2000
 43
1.0000
 50
0.0000
  0
INSERT
  8
31
  2
RECT
 10
84.4550
 20
72.7600
 30
0.0000
 41
0.8000
 42
1.2000
 43
1.0000
 50
90.0000
  0
INSERT
  8
31
  2
RECT
 10
84.4550
 20
74.5600
 30
0.0000
 41
0.8000
 42
1.2000
 43
1.0000
 50
90.0000
  0
INSERT
  8
31
  2
RECT
 10
87.6300
 20
70.7500
 30
0.0000
 41
0.8000
 42
1.2000
 43
1.0000
 50
270.0000
  0
INSERT
  8
31
  2
RECT
 10
87.6300
 20
68.9500
 30
0.0000
 41
0.8000
 42
1.2000
 43
1.0000
 50
270.0000
  0
INSERT
  8
31
  2
RECT
 10
72.3900
 20
35.2950
 30
0.0000
 41
0.8000
 42
1.2000
 43
1.0000
 50
90.0000
  0
INSERT
  8
31
  2
RECT
 10
72.3900
 20
37.0950
 30
0.0000
 41
0.8000
 42
1.2000
 43
1.0000
 50
90.0000
  0
INSERT
  8
31
  2
RECT
 10
74.9300
 20
65.0350
 30
0.0000
 41
0.8000
 42
1.2000
 43
1.0000
 50
270.0000
  0
INSERT
  8
31
  2
RECT
 10
74.9300
 20
63.2350
 30
0.0000
 41
0.8000
 42
1.2000
 43
1.0000
 50
270.0000
  0
INSERT
  8
31
  2
RECT
 10
85.0650
 20
38.1000
 30
0.0000
 41
2.3000
 42
1.6000
 43
1.0000
 50
0.0000
  0
INSERT
  8
31
  2
RECT
 10
78.7650
 20
38.1000
 30
0.0000
 41
2.3000
 42
1.6000
 43
1.0000
 50
0.0000
  0
INSERT
  8
31
  2
RECT
 10
78.7650
 20
34.2900
 30
0.0000
 41
2.3000
 42
1.6000
 43
1.0000
 50
180.0000
  0
INSERT
  8
31
  2
RECT
 10
85.0650
 20
34.2900
 30
0.0000
 41
2.3000
 42
1.6000
 43
1.0000
 50
180.0000
  0
INSERT
  8
31
  2
RECT
 10
94.0100
 20
72.7100
 30
0.0000
 41
0.5500
 42
1.1000
 43
1.0000
 50
90.0000
  0
INSERT
  8
31
  2
RECT
 10
94.0100
 20
73.6600
 30
0.0000
 41
0.5500
 42
1.1000
 43
1.0000
 50
90.0000
  0
INSERT
  8
31
  2
RECT
 10
94.0100
 20
74.6100
 30
0.0000
 41
0.5500
 42
1.1000
 43
1.0000
 50
90.0000
  0
INSERT
  8
31
  2
RECT
 10
91.2100
 20
74.6100
 30
0.0000
 41
0.5500
 42
1.1000
 43
1.0000
 50
90.0000
  0
INSERT
  8
31
  2
RECT
 10
91.2100
 20
72.7100
 30
0.0000
 41
0.5500
 42
1.1000
 43
1.0000
 50
90.0000
  0
INSERT
  8
31
  2
RECT
 10
72.3900
 20
46.9900
 30
0.0000
 41
0.7112
 42
0.7112
 43
1.0000
 50
0.0000
  0
INSERT
  8
31
  2
RECT
 10
71.0900
 20
47.7400
 30
0.0000
 41
0.4000
 42
0.2500
 43
1.0000
 50
0.0000
  0
INSERT
  8
31
  2
RECT
 10
71.0900
 20
47.2400
 30
0.0000
 41
0.4000
 42
0.2500
 43
1.0000
 50
0.0000
  0
INSERT
  8
31
  2
RECT
 10
71.0900
 20
46.7400
 30
0.0000
 41
0.4000
 42
0.2500
 43
1.0000
 50
0.0000
  0
INSERT
  8
31
  2
RECT
 10
71.0900
 20
46.2400
 30
0.0000
 41
0.4000
 42
0.2500
 43
1.0000
 50
0.0000
  0
INSERT
  8
31
  2
RECT
 10
71.6400
 20
45.6900
 30
0.0000
 41
0.4000
 42
0.2500
 43
1.0000
 50
90.0000
  0
INSERT
  8
31
  2
RECT
 10
72.1400
 20
45.6900
 30
0.0000
 41
0.4000
 42
0.2500
 43
1.0000
 50
90.0000
  0
INSERT
  8
31
  2
RECT
 10
72.6400
 20
45.6900
 30
0.0000
 41
0.4000
 42
0.2500
 43
1.0000
 50
90.0000
  0
INSERT
  8
31
  2
RECT
 10
73.1400
 20
45.6900
 30
0.0000
 41
0.4000
 42
0.2500
 43
1.0000
 50
90.0000
  0
INSERT
  8
31
  2
RECT
 10
73.6900
 20
46.2400
 30
0.0000
 41
0.4000
 42
0.2500
 43
1.0000
 50
180.0000
  0
INSERT
  8
31
  2
RECT
 10
73.6900
 20
46.7400
 30
0.0000
 41
0.4000
 42
0.2500
 43
1.0000
 50
180.0000
  0
INSERT
  8
31
  2
RECT
 10
73.6900
 20
47.2400
 30
0.0000
 41
0.4000
 42
0.2500
 43
1.0000
 50
180.0000
  0
INSERT
  8
31
  2
RECT
 10
73.6900
 20
47.7400
 30
0.0000
 41
0.4000
 42
0.2500
 43
1.0000
 50
180.0000
  0
INSERT
  8
31
  2
RECT
 10
73.1400
 20
48.2900
 30
0.0000
 41
0.4000
 42
0.2500
 43
1.0000
 50
270.0000
  0
INSERT
  8
31
  2
RECT
 10
72.6400
 20
48.2900
 30
0.0000
 41
0.4000
 42
0.2500
 43
1.0000
 50
270.0000
  0
INSERT
  8
31
  2
RECT
 10
72.1400
 20
48.2900
 30
0.0000
 41
0.4000
 42
0.2500
 43
1.0000
 50
270.0000
  0
INSERT
  8
31
  2
RECT
 10
71.6400
 20
48.2900
 30
0.0000
 41
0.4000
 42
0.2500
 43
1.0000
 50
270.0000
  0
INSERT
  8
31
  2
RECT
 10
78.7400
 20
46.9900
 30
0.0000
 41
0.5000
 42
0.5000
 43
1.0000
 50
0.0000
  0
INSERT
  8
31
  2
RECT
 10
76.9900
 20
47.9650
 30
0.0000
 41
0.3700
 42
0.6500
 43
1.0000
 50
270.0000
  0
INSERT
  8
31
  2
RECT
 10
76.9900
 20
47.3150
 30
0.0000
 41
0.3700
 42
0.6500
 43
1.0000
 50
270.0000
  0
INSERT
  8
31
  2
RECT
 10
76.9900
 20
46.6650
 30
0.0000
 41
0.3700
 42
0.6500
 43
1.0000
 50
270.0000
  0
INSERT
  8
31
  2
RECT
 10
76.9900
 20
46.0150
 30
0.0000
 41
0.3700
 42
0.6500
 43
1.0000
 50
270.0000
  0
INSERT
  8
31
  2
RECT
 10
77.7650
 20
45.2400
 30
0.0000
 41
0.3700
 42
0.6500
 43
1.0000
 50
180.0000
  0
INSERT
  8
31
  2
RECT
 10
78.4150
 20
45.2400
 30
0.0000
 41
0.3700
 42
0.6500
 43
1.0000
 50
180.0000
  0
INSERT
  8
31
  2
RECT
 10
79.0650
 20
45.2400
 30
0.0000
 41
0.3700
 42
0.6500
 43
1.0000
 50
180.0000
  0
INSERT
  8
31
  2
RECT
 10
79.7150
 20
45.2400
 30
0.0000
 41
0.3700
 42
0.6500
 43
1.0000
 50
180.0000
  0
INSERT
  8
31
  2
RECT
 10
80.4900
 20
46.0150
 30
0.0000
 41
0.3700
 42
0.6500
 43
1.0000
 50
90.0000
  0
INSERT
  8
31
  2
RECT
 10
80.4900
 20
46.6650
 30
0.0000
 41
0.3700
 42
0.6500
 43
1.0000
 50
90.0000
  0
INSERT
  8
31
  2
RECT
 10
80.4900
 20
47.3150
 30
0.0000
 41
0.3700
 42
0.6500
 43
1.0000
 50
90.0000
  0
INSERT
  8
31
  2
RECT
 10
80.4900
 20
47.9650
 30
0.0000
 41
0.3700
 42
0.6500
 43
1.0000
 50
90.0000
  0
INSERT
  8
31
  2
RECT
 10
79.7150
 20
48.7400
 30
0.0000
 41
0.3700
 42
0.6500
 43
1.0000
 50
0.0000
  0
INSERT
  8
31
  2
RECT
 10
79.0650
 20
48.7400
 30
0.0000
 41
0.3700
 42
0.6500
 43
1.0000
 50
0.0000
  0
INSERT
  8
31
  2
RECT
 10
78.4150
 20
48.7400
 30
0.0000
 41
0.3700
 42
0.6500
 43
1.0000
 50
0.0000
  0
INSERT
  8
31
  2
RECT
 10
77.7650
 20
48.7400
 30
0.0000
 41
0.3700
 42
0.6500
 43
1.0000
 50
0.0000
  0
INSERT
  8
31
  2
RECT
 10
87.0100
 20
47.6600
 30
0.0000
 41
1.1000
 42
0.8000
 43
1.0000
 50
90.0000
  0
INSERT
  8
31
  2
RECT
 10
86.3500
 20
51.3900
 30
0.0000
 41
1.1000
 42
1.0000
 43
1.0000
 50
90.0000
  0
INSERT
  8
31
  2
RECT
 10
85.7100
 20
47.6600
 30
0.0000
 41
1.1000
 42
0.8000
 43
1.0000
 50
90.0000
  0
INSERT
  8
31
  2
RECT
 10
67.7900
 20
61.5950
 30
0.0000
 41
0.6000
 42
2.2000
 43
1.0000
 50
270.0000
  0
INSERT
  8
31
  2
RECT
 10
67.7900
 20
60.3250
 30
0.0000
 41
0.6000
 42
2.2000
 43
1.0000
 50
270.0000
  0
INSERT
  8
31
  2
RECT
 10
67.7900
 20
59.0550
 30
0.0000
 41
0.6000
 42
2.2000
 43
1.0000
 50
270.0000
  0
INSERT
  8
31
  2
RECT
 10
67.7900
 20
57.7850
 30
0.0000
 41
0.6000
 42
2.2000
 43
1.0000
 50
270.0000
  0
INSERT
  8
31
  2
RECT
 10
74.4500
 20
57.7850
 30
0.0000
 41
0.6000
 42
2.2000
 43
1.0000
 50
270.0000
  0
INSERT
  8
31
  2
RECT
 10
74.4500
 20
59.0550
 30
0.0000
 41
0.6000
 42
2.2000
 43
1.0000
 50
270.0000
  0
INSERT
  8
31
  2
RECT
 10
74.4500
 20
60.3250
 30
0.0000
 41
0.6000
 42
2.2000
 43
1.0000
 50
270.0000
  0
INSERT
  8
31
  2
RECT
 10
74.4500
 20
61.5950
 30
0.0000
 41
0.6000
 42
2.2000
 43
1.0000
 50
270.0000
  0
INSERT
  8
31
  2
RECT
 10
73.5850
 20
70.4850
 30
0.0000
 41
0.8000
 42
1.4000
 43
1.0000
 50
270.0000
  0
INSERT
  8
31
  2
RECT
 10
73.6600
 20
72.0090
 30
0.0000
 41
0.8000
 42
1.4000
 43
1.0000
 50
270.0000
  0
INSERT
  8
31
  2
RECT
 10
73.6600
 20
68.9610
 30
0.0000
 41
0.8000
 42
1.4000
 43
1.0000
 50
270.0000
  0
INSERT
  8
31
  2
RECT325120X584000R75
 10
76.5050
 20
70.4850
 30
0.0000
 41
1.0000
 42
1.0000
 43
1.0000
 50
270.0000
  0
INSERT
  8
31
  2
RECT
 10
84.8450
 20
64.4750
 30
0.0000
 41
0.5000
 42
0.3500
 43
1.0000
 50
0.0000
  0
INSERT
  8
31
  2
RECT
 10
84.8450
 20
63.8250
 30
0.0000
 41
0.5000
 42
0.3500
 43
1.0000
 50
0.0000
  0
INSERT
  8
31
  2
RECT
 10
84.8450
 20
63.1750
 30
0.0000
 41
0.5000
 42
0.3500
 43
1.0000
 50
0.0000
  0
INSERT
  8
31
  2
RECT
 10
84.8450
 20
62.5250
 30
0.0000
 41
0.5000
 42
0.3500
 43
1.0000
 50
0.0000
  0
INSERT
  8
31
  2
RECT
 10
82.7950
 20
62.5250
 30
0.0000
 41
0.5000
 42
0.3500
 43
1.0000
 50
0.0000
  0
INSERT
  8
31
  2
RECT
 10
82.7950
 20
63.1750
 30
0.0000
 41
0.5000
 42
0.3500
 43
1.0000
 50
0.0000
  0
INSERT
  8
31
  2
RECT
 10
82.7950
 20
63.8250
 30
0.0000
 41
0.5000
 42
0.3500
 43
1.0000
 50
0.0000
  0
INSERT
  8
31
  2
RECT
 10
82.7950
 20
64.4750
 30
0.0000
 41
0.5000
 42
0.3500
 43
1.0000
 50
0.0000
  0
ENDSEC
  0
EOF
